<?xml version="1.0" encoding="UTF-8"?>
<svg version="1.1" viewBox="0 0 2048 2048" width="1280" height="1280" xmlns="http://www.w3.org/2000/svg">
<path transform="translate(999,616)" d="m0 0h48l32 3 31 5 36 9 27 9 29 12 32 16 23 14 17 12 19 14 11 10 8 7 12 11 13 13 9 11 14 17 13 18 10 15 13 22 5 10-1 2-13-22-11-19-9-12-18-22-10-10-7-8-4-5-5-5v-2l-5-2-4-6-12-11-11-9-10-8-20-14-21-13-24-13-24-11-20-8-28-9-22-6-31-6-36-4-15-1h-28l-27 2-31 4-36 8-33 10-28 11-25 12-17 9-15 9-12 8-14 10-17 13-14 12-13 12-15 15-9 11-9 10-12 16-9 13-14 22-14 25-9 21 15-27 16-26 14-19 10-13 12-14 9-10 7-8 8-7 10-10 11-9 9-8 12-9 17-12 21-13 25-14 23-11 31-12 26-8 29-7 31-5 16-2 16-1h47l31 3 36 6 28 7 25 8 16 6-3 1-20-7-24-7-27-6-18-3-35-3-29-1 34 2 31 4 31 6 28 7 15 5v2l3-1 5 2v2l-9-2-24-7-22-5-31-5-20-2-19-1h-32l-34 3-25 4-26 6-24 7-24 9-18 8-25 12-21 12-24 16-11 8-14 11-14 12-9 9-8 7-12 12-7 8-12 14-9 12-13 18-12 19-6 10-8 16-10 22-10 28-6 21-5 21-4 23-3 29v50l3 31 5 28 8 32 9 27 11 26 12 25 17 28 13 19 12 16 10 11 7 8 19 19 8 7 16 13 18 13 15 10 24 14 26 13 33 13 25 8 28 7 35 6 33 3h43l31-3 30-5 25-6 29-9 29-12 30-15 25-15 6-4 2 1-11 8-22 13-27 14-28 12-26 9-24 7-27 6-33 5-39 3h-21l-28-2-31-4-34-7-27-8-20-7-26-11-24-12-17-10-27-18-19-14-14-12-8-7-17-16-9-10-11-12-11-14-13-17-12-18-11-19-14-27-10-24-8-22-8-29-5-24-4-27-2-23v-47l3-32 5-30 7-28 12-36 11-26 13-25 10-17 11-16 12-17 13-16 9-11 32-32 11-9 9-8 19-14 18-12 15-9 22-12 23-11 31-12 34-10 34-7 21-3zm19 16m3 0v1h6v-1zm-384 243 1 2zm-1 2 1 2z" fill="#F0E0AF"/>
<path transform="translate(999,616)" d="m0 0h48l32 3 31 5 36 9 27 9 29 12 32 16 23 14 17 12 19 14 11 10 8 7 12 11 13 13 9 11 14 17 13 18 10 15 13 22 5 10-1 2-13-22-11-19-9-12-18-22-10-10-7-8-4-5-5-5v-2l-5-2-4-6-12-11-11-9-10-8-20-14-21-13-24-13-24-11-20-8-28-9-22-6-31-6-36-4-15-1h-28l-27 2-31 4-36 8-33 10-28 11-25 12-17 9-15 9-12 8-14 10-17 13-14 12-13 12-15 15-9 11-9 10-12 16-9 13-14 22-14 25-9 21 15-27 16-26 14-19 10-13 12-14 9-10 7-8 8-7 10-10 11-9 9-8 12-9 17-12 21-13 25-14 23-11 31-12 26-8 29-7 31-5 16-2 16-1h47l31 3 36 6 28 7 25 8 16 6-3 1-20-7-24-7-27-6-18-3-35-3-29-1 34 2 31 4 31 6 28 7 15 5v2l3-1 5 2v2l-9-2-24-7-22-5-31-5-20-2-19-1h-32l-34 3-25 4-26 6-24 7-24 9-18 8-25 12-21 12-24 16-11 8-14 11-14 12-9 9-8 7-12 12-7 8-12 14-9 12-13 18-12 19-6 10-8 16-10 22-10 28-3 8h-1l1-10 2-10-5-5v-2l-8-4-9 2-2-1v-7l11-27 12-25 14-24 11-16 12-17 13-16 9-11 32-32 11-9 9-8 19-14 18-12 15-9 22-12 23-11 31-12 34-10 34-7 21-3zm19 16m3 0v1h6v-1zm-384 243 1 2zm-1 2 1 2z" fill="#B59854"/>
<path transform="translate(1103,966)" d="m0 0 10 1 4 9 23 71 5 15 2-4 14-51 10-39 1-1h17l-2 10-17 64-17 62-1 1h-11l-4-8-13-40-16-50-2 3-16 49-13 41-3 5h-10l-3-4-15-55-4-15v-3h17l3 9 7 26v2h2l1-8 17-52 10-32z" fill="#E4C16E"/>
<path transform="translate(676,1233)" d="m0 0 4 5 16 27 10 14 8 11 8 10 12 14 22 22 8 7 16 13 18 13 15 10 24 14 26 13 33 13 25 8 28 7 35 6 33 3h43l31-3 30-5 25-6 29-9 29-12 30-15 25-15 6-4 2 1-11 8-22 13-27 14-28 12-26 9-24 7-27 6-33 5-39 3h-21l-28-2-31-4-34-7-27-8-20-7-26-11-24-12-17-10-27-18-19-14-14-12-8-7-17-16-9-10-11-12-11-14-13-17-12-18-9-15v-2l5 1 3 3 1 3 6 4 8 2v2l5 2 2 4 5 2h2l-13-23z" fill="#B69954"/>
<path transform="translate(1298,967)" d="m0 0h55l11 4 8 6 6 7 4 8 2 8v10l-4 13-4 6-2 4 9 8 5 8 2 6 1 11-2 13-6 10-4 5-9 6-8 3-6 1h-58v-17l61-1 8-5 5-8 1-10-3-10-8-7-5-1-58-1-1-1v-16l53-1 8-4 5-6 2-6v-10l-5-10-8-5-7-1-48-1z" fill="#E3C16D"/>
<path transform="translate(999,616)" d="m0 0h48l32 3 31 5 36 9 27 9 29 12 32 16 23 14 17 12 19 14 11 10 8 7 12 11 13 13 9 11 14 17 13 18 10 15 13 22 5 10-1 2-13-22-11-19-9-12-18-22-10-10-7-8-4-5-5-5v-2l-5-2-4-6-12-11-11-9-10-8-20-14-21-13-24-13-24-11-20-8-28-9-22-6-31-6-36-4-15-1h-28l-27 2-31 4-36 8-33 10-28 11-25 12-17 9-15 9-12 8-14 10-17 13-14 12-13 12-15 15-9 11-9 10-12 16-9 13-14 22-14 25-11 25-1 5v1l10-18 4-5 4 1 8 6 1 7-5 14-3 8 2 1-9 25-3 8h-1l1-10 2-10-5-5v-2l-8-4-9 2-2-1v-7l11-27 12-25 14-24 11-16 12-17 13-16 9-11 32-32 11-9 9-8 19-14 18-12 15-9 22-12 23-11 31-12 34-10 34-7 21-3z" fill="#B89B56"/>
<path transform="translate(903,967)" d="m0 0h13l10 13 13 18 12 16 28 38 12 16 1-101h17v136l-1 1h-11l-9-10-13-18-10-13-13-18-16-21-12-17-9-12-12-17z" fill="#E4C26E"/>
<path transform="translate(622,896)" d="m0 0 2 2-1 2 5-1 7-1 7 5 2 4 4 3-3 14v7l-8 33-4 23-2 17-1-4h-2l-1 4-8-1-11-7-5-4h-2l1-13 5-30 7-28z" fill="#F0E0AF"/>
<path transform="translate(1007,628)" d="m0 0h47l31 3 36 6 28 7 25 8 16 6-3 1-20-7-24-7-27-6-18-3-35-3-29-1 34 2 31 4 31 6 28 7 15 5v2l3-1 5 2v2l-9-2-24-7-22-5-31-5-20-2-19-1h-32l-34 3-25 4-26 6-24 7-11 4-9 1-15 6-16 6v-2h2v-2l4-1 2-4 3-1v-2l4-3v-3h2v-2l-3-1 33-11 24-6 32-6 24-3zm11 4m3 0v1h6v-1z" fill="#F0E0AE"/>
<path transform="translate(750,1027)" d="m0 0h18l-1 5-12 22-15 28-3 5h63v16l-1 1h-90l2-5 15-28 14-26z" fill="#E5C370"/>
<path transform="translate(603,991)" d="m0 0 1 2 4 2 7 5 7 3 5 1 1-4h2v66l3 31 1 13-2-4-3-17-9-3-9-4-1-2-9 1-2-23v-47l1-14 1-5z" fill="#E5C26F"/>
<path transform="translate(1265,1374)" d="m0 0 2 1-11 8-22 13-27 14-28 12-26 9-24 7-27 6-33 5-39 3h-21l-28-2-31-4-30-6-1-2 10 1 6 1-2-3-8-4-2-2-8-2v-2h-5l-1-3 40 10 35 6 33 3h43l31-3 30-5 25-6 29-9 29-12 30-15 25-15z" fill="#F0DFAD"/>
<path transform="translate(643,1152)" d="m0 0 2 1 7 22 9 24 13 28 4 10 9 16 3 7h-3l-5-3-5-5-2-1v-2l-8-1-7-5-3-5-6-2-15-29-8-19-1-8 2-2 1 3 3 2v2h2l2 3 9 4 12 12v-4l-5-14-8-24z" fill="#E4C16D"/>
<path transform="translate(710,967)" d="m0 0h91l-2 6-6 10-2 1h-80l-1-1z" fill="#E5C370"/>
<path transform="translate(1198,1087)" d="m0 0h85l1 1v15l-1 1h-85z" fill="#E5C26E"/>
<path transform="translate(1198,967)" d="m0 0h86v16l-2 1h-83l-1-1z" fill="#E5C471"/>
<path transform="translate(811,967)" d="m0 0h85v16l-2 1h-83l-1-1v-13z" fill="#E5C371"/>
<path transform="translate(811,1087)" d="m0 0h85v16l-1 1h-84l-1-3z" fill="#E4C26E"/>
<path transform="translate(1008,616)" d="m0 0h39l32 3 31 5 36 9 27 9 29 12 32 16 23 14 17 12 19 14 11 10 8 7 12 11 13 13 9 11 14 17 13 18 10 15 13 22 5 10-1 2-13-22-11-19-9-12-18-22-10-10-7-8-4-5-5-5v-2l-5-2-4-6-12-11-11-9-10-8-20-14-21-13-24-13-24-11-20-8-28-9-22-6-31-6-36-4-41-2-8-1z" fill="#B79A56"/>
<path transform="translate(1198,1027)" d="m0 0h57l24 1v15l-1 1h-79l-1-1z" fill="#DFBE6C"/>
<path transform="translate(811,1027)" d="m0 0h79l2 3-1 13-1 1h-79l-1-4v-12z" fill="#DFBD6C"/>
<path transform="translate(1020,628)" d="m0 0h34l31 3 36 6 28 7 25 8 16 6-3 1-20-7-24-7-27-6-18-3-35-3-29-1 34 2 31 4 31 6 28 7 15 5v2l3-1 5 2v2l-9-2-24-7-22-5-31-5-20-2-19-1h-55l1-2-13-1h-6l1-2 17-3 16-2zm-2 4m3 0v1h6v-1z" fill="#B79A55"/>
<path transform="translate(638,857)" d="m0 0 2 1-2 5-2 12 1 5-1 3 10-18 4-5 4 1 8 6 1 7-5 14-3 8 2 1-9 25-3 8h-1l1-10 2-10-5-5v-2l-8-4-9 2-2-1v-7l11-27z" fill="#E5C26E"/>
<path transform="translate(603,991)" d="m0 0 1 2 4 2 7 5 7 3 5 1 1-4h2v16l-1 6-1 18-5 6-4-1-2-1v-2l-4-2-2-5-5-2-1-2-4-1-1 18h-1v-37l1-14 1-5z" fill="#B59854"/>
<path transform="translate(909,1424)" d="m0 0 40 10 2 1v2h7l26 5 3 1 42 5 11 1 2 2-12 1h-21l-28-2-31-4-30-6-1-2 10 1 6 1-2-3-8-4-2-2-8-2v-2h-5z" fill="#E6C573"/>
<path transform="translate(605,962)" d="m0 0 4 1 1 5 4 2v2l4 2v2l11 2 5-2-2 19-1 9-1-4h-2l-1 4-8-1-11-7-5-4h-2l1-13z" fill="#E5C26E"/>
<path transform="translate(915,643)" d="m0 0 4 1-5 5-6 4-2 4h-2v2l24-7 13-3 3 1-25 8-15 5-9 1-15 6-16 6v-2h2v-2l4-1 2-4 3-1v-2l4-3v-3h2v-2l-3-1 33-11z" fill="#E5C370"/>
<path transform="translate(999,616)" d="m0 0h9v1l6 1-2 2-27 2-31 4-36 8-33 10h-2l-2-2-7 1 3-2 24-8 27-7 25-5 21-3z" fill="#E6C676"/>
<path transform="translate(1006,967)" d="m0 0h3v136h-2l-1-3z" fill="#C7AA66"/>
<path transform="translate(1026,967)" d="m0 0h17l2 6 2 10-4 1-13-1-2-5z" fill="#E4C26F"/>
<path transform="translate(999,616)" d="m0 0h9v1l6 1-2 2-27 2-31 4-19 4h-7l2-2 35-8 9-2z" fill="#DFC175"/>
<path transform="translate(1007,628)" d="m0 0h13l-3 2-29 4-4 1 19 1-1 2 8 1v1l-28 3h-8l3-2 7-2-10-1 1-3 4-2-1-2 13-2z" fill="#E5C371"/>
<path transform="translate(1265,1374)" d="m0 0 2 1-11 8-22 13-27 14-28 12-3-1 4-1v-2l26-11 28-14 25-15z" fill="#BEA05A"/>
<path transform="translate(960,620)" d="m0 0h5l-4 2-31 7 1 2-7 1v-2l-19 5h-7l3-2 27-7 25-5z" fill="#F1E1B1"/>
<path transform="translate(1111,636)" d="m0 0 10 1 28 7 25 8 16 6-3 1-20-7-24-7-27-6-5-1z" fill="#B59854"/>
<path transform="translate(1177,1419)" d="m0 0 3 1-4 1v2l-23 8-9 2-4-2 35-11z" fill="#E7D090"/>
<path transform="translate(643,1152)" d="m0 0 2 1 7 22 9 24 2 4-1 3-5-8-12-36z" fill="#DBBC6F"/>
<path transform="translate(1370,796)" d="m0 0 4 2 12 19 11 19 4 8-1 2-13-22-11-19z" fill="#B59854"/>
<path transform="translate(1265,1374)" d="m0 0 2 1-11 8-22 13-4 1 5-5 16-9z" fill="#BB9D58"/>
<path transform="translate(899,662)" d="m0 0 3 1-9 4-15 6 2-4 15-6z" fill="#BDA05A"/>
<path transform="translate(908,981)" d="m0 0 5 5 7 10v2l-4-2-8-11z" fill="#BDA059"/>
<path transform="translate(1230,1395)" d="m0 0m-2 1h2l-1 3-16 8-2-1 3-3z" fill="#BFA25C"/>
<path transform="translate(1177,1419)" d="m0 0 3 1-4 1v2l-14 5-2-1 3-1v-2z" fill="#DDC27C"/>
<path transform="translate(1e3 616)" d="m0 0 4 1 6 1-2 2h-13l1-3z" fill="#E6C676"/>
<path transform="translate(1265,1374)" d="m0 0 2 1-11 8-5 3-2-1 5-4z" fill="#B59854"/>
<path transform="translate(642,870)" d="m0 0 1 2-7 13-2 1 3-9 3-6z" fill="#BB9F5B"/>
<path transform="translate(899,662)" d="m0 0 3 1-9 4-4 1 1-3z" fill="#C1A45C"/>
<path transform="translate(1210,1405)" d="m0 0 2 1-3 3-9 3 4-4z" fill="#BA9C56"/>
<path transform="translate(1401,846)" d="m0 0 3 3 1 4-3-3z" fill="#B59854"/>
<path transform="translate(1308,729)" d="m0 0 5 5-4-2z" fill="#B59854"/>
<path transform="translate(1197,662)" d="m0 0 5 1-3 1z" fill="#B59854"/>
<path transform="translate(1190,659)" d="m0 0 5 1-3 1z" fill="#B59854"/>
<path transform="translate(1268,1372)" d="m0 0 2 1h-3z" fill="#B59854"/>
<path transform="translate(1271,1370)" d="m0 0 2 1z" fill="#B59854"/>
<path transform="translate(1275,1367)" d="m0 0 2 1z" fill="#B59854"/>
<path transform="translate(1405,853)" d="m0 0" fill="#B59854"/>
<path transform="translate(1202,664)" d="m0 0 2 1z" fill="#B59854"/>
<path transform="translate(1195,661)" d="m0 0 2 1z" fill="#B59854"/>
<path transform="translate(1182,661)" d="m0 0 2 1z" fill="#B59854"/>
<path transform="translate(1270,1371)" d="m0 0" fill="#B59854"/>
<path transform="translate(1273,1369)" d="m0 0" fill="#B59854"/>
<path transform="translate(1274,1368)" d="m0 0" fill="#B59854"/>
<path transform="translate(1277,1366)" d="m0 0" fill="#B59854"/>
<path transform="translate(1278,1365)" d="m0 0" fill="#B59854"/>
<path transform="translate(1280,1364)" d="m0 0" fill="#B59854"/>
<path transform="translate(1281,1363)" d="m0 0" fill="#B59854"/>
<path transform="translate(1445,1010)" d="m0 0" fill="#B59854"/>
<path transform="translate(1416,878)" d="m0 0" fill="#B59854"/>
<path transform="translate(1415,876)" d="m0 0" fill="#B59854"/>
<path transform="translate(1414,873)" d="m0 0" fill="#B59854"/>
<path transform="translate(1413,871)" d="m0 0" fill="#B59854"/>
<path transform="translate(1315,735)" d="m0 0" fill="#B59854"/>
<path transform="translate(1313,734)" d="m0 0" fill="#B59854"/>
<path transform="translate(1215,670)" d="m0 0" fill="#B59854"/>
<path transform="translate(1213,669)" d="m0 0" fill="#B59854"/>
<path transform="translate(1211,668)" d="m0 0" fill="#B59854"/>
<path transform="translate(1209,667)" d="m0 0" fill="#B59854"/>
<path transform="translate(1207,666)" d="m0 0" fill="#B59854"/>
<path transform="translate(1205,665)" d="m0 0" fill="#B59854"/>
</svg>
